<svg xmlns="http://www.w3.org/2000/svg" width="33.156" height="16.024" viewBox="0 0 33.156 16.024">
  <path id="Path_31996" data-name="Path 31996" d="M1208.7,862.087a1.223,1.223,0,0,0-.372.249,1.187,1.187,0,0,0-.243.371,1.116,1.116,0,0,0,0,.877,1.2,1.2,0,0,0,.243.372l4.916,4.911h-28.1a1.144,1.144,0,1,0,0,2.289h28.1l-4.916,4.911a1.146,1.146,0,0,0,.814,1.956,1.137,1.137,0,0,0,.808-.336l6.864-6.866a1.1,1.1,0,0,0,.25-.371,1.116,1.116,0,0,0,0-.877,1.108,1.108,0,0,0-.25-.372l-6.864-6.865a1.085,1.085,0,0,0-.372-.249,1.128,1.128,0,0,0-.436-.087A1.159,1.159,0,0,0,1208.7,862.087Z" transform="translate(-1184 -862)" fill="#252424" fill-rule="evenodd"/>
</svg>
