<svg id="Component_613_1" data-name="Component 613 – 1" xmlns="http://www.w3.org/2000/svg" xmlns:xlink="http://www.w3.org/1999/xlink" width="22" height="22" viewBox="0 0 22 22">
  <defs>
    <clipPath id="clip-path">
      <rect id="Rectangle_4258" data-name="Rectangle 4258" width="22" height="22" transform="translate(-0.001 -0.001)" fill="#fff"/>
    </clipPath>
  </defs>
  <g id="Group_7765" data-name="Group 7765" transform="translate(0.001 0.001)" clip-path="url(#clip-path)">
    <path id="Path_32858" data-name="Path 32858" d="M5,6.416A.917.917,0,1,0,5,8.249h7.333a.917.917,0,1,0,0-1.833Z" transform="translate(2.333 3.665)" fill="#fff"/>
    <path id="Path_32859" data-name="Path 32859" d="M20.748,10.665A10.082,10.082,0,1,1,10.666.583,10.083,10.083,0,0,1,20.748,10.665Zm-1.833,0A8.249,8.249,0,1,1,16.5,4.832,8.248,8.248,0,0,1,18.915,10.665Z" transform="translate(0.333 0.333)" fill="#fff" fill-rule="evenodd"/>
  </g>
</svg>
